<svg width="89" height="83" viewBox="0 0 89 83" fill="none" xmlns="http://www.w3.org/2000/svg">
<path d="M86.937 0L48.748 28.1168L55.8496 11.5468L86.937 0Z" fill="#E17726"/>
<path d="M2.15234 0.0332093L33.1567 11.5489L39.8998 28.3362L2.15234 0.0332093ZM71.5685 59.7968L88.4476 60.1164L82.5485 80.0565L61.9523 74.414L71.5685 59.7968ZM17.4311 59.7968L27.0115 74.414L6.45007 80.0568L0.586844 60.1164L17.4311 59.7968Z" fill="#E27625"/>
<path d="M38.983 24.0601L39.6728 46.2283L19.0321 45.294L24.9033 36.4804L24.9777 36.3956L38.983 24.0601ZM49.8031 23.8128L64.0223 36.3963L64.096 36.4807L69.9672 45.2943L49.331 46.2283L49.8031 23.8128ZM27.6161 59.8611L38.8864 68.5989L25.7944 74.8883L27.6161 59.8611ZM61.386 59.8597L63.1698 74.8886L50.1143 68.5982L61.386 59.8597Z" fill="#E27625"/>
<path d="M50.4025 67.7753L63.6506 74.1584L51.3273 79.9859L51.4552 76.1343L50.4025 67.7753ZM38.5937 67.778L37.5823 76.0714L37.6654 79.9814L25.3132 74.1584L38.5937 67.778Z" fill="#D5BFB2"/>
<path d="M34.7681 49.1217L38.23 56.3613L26.4434 52.9255L34.7681 49.1217ZM54.2316 49.1224L62.5955 52.9255L50.7703 56.3603L54.2316 49.1224Z" fill="#233447"/>
<path d="M28.5169 59.7871L26.6117 75.3678L16.4 60.1278L28.5169 59.7871ZM60.4838 59.7874L72.6011 60.1278L62.3511 75.3684L60.4838 59.7874ZM70.2655 44.4129L61.4472 53.3555L54.6481 50.264L51.393 57.0732L49.2591 45.3639L70.2655 44.4129ZM18.73 44.4129L39.7406 45.3639L37.6063 57.0732L34.3505 50.265L27.5876 53.3559L18.73 44.4129Z" fill="#CC6228"/>
<path d="M18.1358 42.5777L28.1129 52.6516L28.4584 62.5967L18.1358 42.5777ZM70.8742 42.5598L60.5329 62.6144L60.9222 52.6516L70.8742 42.5598ZM39.2528 43.1914L39.6544 45.7063L40.6466 51.9715L40.0086 71.2138L36.9927 55.7559L36.9917 55.5961L39.2528 43.1914ZM49.742 43.1565L52.009 55.5961L52.008 55.7559L48.9844 71.2526L48.3931 51.8573L49.742 43.1565Z" fill="#E27525"/>
<path d="M61.8091 52.2513L61.4715 60.892L50.9466 69.0514L48.8189 67.5556L51.2039 55.3322L61.8091 52.2513ZM27.2274 52.2513L37.7958 55.3322L40.1807 67.5556L38.0531 69.0514L27.5278 60.8913L27.2274 52.2513Z" fill="#F5841F"/>
<path d="M23.2992 72.2502L36.7646 78.5987L36.7076 75.8877L37.8344 74.9035H51.1614L52.3289 75.8842L52.2427 78.5932L65.6229 72.2661L59.112 77.6198L51.2393 83H37.7263L29.8588 77.5976L23.2992 72.2502Z" fill="#C0AC9D"/>
<path d="M49.4381 66.9302L51.3419 68.2686L52.4575 77.1258L50.843 75.7694H38.1619L36.578 77.1531L37.6571 68.2693L39.5615 66.9302H49.4381Z" fill="#161616"/>
<path d="M84.4158 0.778342L89 14.4623L86.1371 28.2985L88.1757 29.8631L85.4171 31.9574L87.4905 33.5507L84.745 36.0383L86.4305 37.2528L81.9575 42.4508L63.6117 37.1356L63.4528 37.0508L50.2325 25.9541L84.4158 0.778342ZM4.5842 0.778342L38.7678 25.9541L25.5472 37.0508L25.3883 37.1356L7.04247 42.4508L2.56953 37.2528L4.25357 36.0393L1.50987 33.5507L3.57912 31.9591L0.779098 29.8589L2.89459 28.2933L0 14.463L4.5842 0.778342Z" fill="#763E1A"/>
<path d="M62.7144 35.9733L82.1529 41.6046L88.4681 60.9719H71.807L60.3274 61.1158L68.676 44.9235L62.7144 35.9733ZM26.2856 35.9733L20.3229 44.9235L28.6726 61.1158L17.1982 60.9719H0.567027L6.84674 41.605L26.2856 35.9733ZM56.8015 11.4544L51.3645 26.0662L50.2106 45.8049L49.7691 51.9919L49.734 67.7967H39.2657L39.2316 52.0216L38.7887 45.7997L37.6345 26.0662L32.1982 11.4544H56.8015Z" fill="#F5841F"/>
</svg>
